<svg xmlns="http://www.w3.org/2000/svg" xmlns:xlink="http://www.w3.org/1999/xlink" width="5009" height="800" viewBox="0 0 5009 800">
  <defs>
    <linearGradient id="linear-gradient" x1="0.368" x2="0.803" y2="0.79" gradientUnits="objectBoundingBox">
      <stop offset="0" stop-color="#7d7d7d"/>
      <stop offset="1" stop-color="#656565"/>
    </linearGradient>
    <linearGradient id="linear-gradient-2" x1="0.192" x2="0.638" y2="0.937" gradientUnits="objectBoundingBox">
      <stop offset="0" stop-color="#6e6e6e"/>
      <stop offset="1" stop-color="#a0a0a0"/>
    </linearGradient>
    <linearGradient id="linear-gradient-3" x1="0.891" y1="0.137" x2="0.182" y2="0.889" gradientUnits="objectBoundingBox">
      <stop offset="0" stop-color="#dd8234"/>
      <stop offset="1" stop-color="#f2b76a"/>
    </linearGradient>
    <linearGradient id="linear-gradient-4" x1="0.335" y1="0.192" x2="0.807" y2="0.92" gradientUnits="objectBoundingBox">
      <stop offset="0" stop-color="#e0943a"/>
      <stop offset="1" stop-color="#d17e37"/>
    </linearGradient>
    <clipPath id="clip-eventos-sp-logo">
      <rect width="5009" height="800"/>
    </clipPath>
  </defs>
  <g id="eventos-sp-logo" clip-path="url(#clip-eventos-sp-logo)">
    <g id="Grupo_2" data-name="Grupo 2" transform="translate(100 100)">
      <g id="Grupo_1" data-name="Grupo 1">
        <path id="Caminho_1" data-name="Caminho 1" d="M831.8,788.734l13.416-27.443h404.72l-54.41-94.658h31.3l68.571,122.1Z" transform="translate(-688.69 -189.614)" stroke="#707070" stroke-width="3" fill="url(#linear-gradient)"/>
        <path id="Caminho_2" data-name="Caminho 2" d="M880.606,823.123l15.652-25.342H787.438L1004.333,423.62l200.5,348.82h30.559L1004.333,372.192,743.463,823.123Z" transform="translate(-743.463 -372.192)" fill="url(#linear-gradient-2)"/>
        <path id="Caminho_3" data-name="Caminho 3" d="M1026.9,494.568l15.652,23.851L824.169,896.308H793.61Z" transform="translate(-712.368 -296.308)" fill="url(#linear-gradient-3)"/>
        <path id="Caminho_4" data-name="Caminho 4" d="M883.322,822.553l15.652-25.342h401.739L1085.31,423.05l-54.41,93.168-15.652-24.6,70.062-118.509,262.36,449.441Z" transform="translate(-656.739 -371.621)" fill="url(#linear-gradient-4)"/>
      </g>
    </g>
    <path id="Caminho_5" data-name="Caminho 5" d="M126.85-399.088v158.061h87.877q34.207,0,45.708-10.321,15.334-13.565,17.1-47.772h10.911v139.188H277.539q-4.128-29.194-8.257-37.451-5.308-10.321-17.4-16.219t-37.156-5.9H126.85V-87.684q0,26.54,2.359,32.29a18.549,18.549,0,0,0,8.257,9.142q5.9,3.391,22.412,3.391H227.7q33.912,0,49.247-4.718t29.489-18.578Q324.721-84.44,343.889-121.3h11.8l-34.5,100.263H13.022V-31.95H27.177a56.087,56.087,0,0,0,26.835-6.782A24.809,24.809,0,0,0,66.84-52.887q3.391-9.437,3.391-38.631v-259.8q0-38.041-7.667-46.888Q51.948-410,27.177-410H13.022V-420.91h308.16l4.423,87.582H314.1q-6.193-31.553-13.712-43.349t-22.264-17.988q-11.8-4.424-41.579-4.423ZM871.994-420.91V-410q-21.232,3.833-32.143,13.565-15.629,14.45-27.719,44.234L672.648-11.9H661.737l-149.8-344.726q-11.5-26.54-16.219-32.438a51.689,51.689,0,0,0-18.136-14.3q-10.763-5.161-29.047-6.635V-420.91H611.9V-410q-27.72,2.654-35.977,9.436a21.509,21.509,0,0,0-8.257,17.4q0,14.745,13.565,46L682.97-102.723l94.365-231.489q13.86-34.207,13.86-47.477,0-8.552-8.552-16.366t-28.9-11.058q-1.474-.295-5.013-.884V-420.91Zm207.265,21.822v158.061h87.877q34.207,0,45.708-10.321,15.334-13.565,17.1-47.772h10.911v139.188h-10.911q-4.128-29.194-8.257-37.451-5.308-10.321-17.4-16.219t-37.156-5.9h-87.877V-87.684q0,26.54,2.359,32.29a18.55,18.55,0,0,0,8.257,9.142q5.9,3.391,22.411,3.391h67.825q33.912,0,49.247-4.718t29.489-18.578Q1277.13-84.44,1296.3-121.3h11.8l-34.5,100.263H965.432V-31.95h14.155a56.086,56.086,0,0,0,26.835-6.782,24.808,24.808,0,0,0,12.828-14.155q3.391-9.437,3.391-38.631v-259.8q0-38.041-7.667-46.888Q1004.357-410,979.586-410H965.432V-420.91h308.16l4.423,87.582h-11.5q-6.193-31.553-13.712-43.349t-22.264-17.988q-11.8-4.424-41.58-4.423Zm308.412-21.822h108.519l244.464,299.9v-230.6q0-36.861-8.257-46Q1721.487-410,1697.9-410h-13.86V-420.91h139.188V-410h-14.155q-25.36,0-35.976,15.334-6.488,9.436-6.488,43.054V-14.551h-10.616l-263.632-322.02V-90.338q0,36.861,7.962,46,11.206,12.385,34.5,12.385h14.155v10.911H1409.788V-31.95h13.86q25.655,0,36.271-15.334,6.487-9.437,6.487-43.054V-368.419q-17.4-20.347-26.393-26.835t-26.392-12.09Q1405.07-410,1387.672-410Zm867.228,0,4.423,93.775h-11.206q-3.244-24.771-8.846-35.387-9.142-17.1-24.328-25.213t-39.958-8.11h-56.323V-90.338q0,36.861,7.962,46,11.206,12.385,34.5,12.385h13.86v10.911H2005.423V-31.95h14.155q25.36,0,35.976-15.334,6.487-9.437,6.487-43.054V-395.844h-48.067q-28.014,0-39.81,4.128-15.334,5.6-26.245,21.527t-12.975,43.054h-11.206l4.718-93.775Zm303.1-9.142q77.851,0,134.912,59.125t57.062,147.592q0,91.121-57.5,151.278T2553.286-11.9q-82.569,0-138.746-58.683t-56.176-151.868q0-95.249,64.875-155.407Q2479.563-430.051,2558-430.051Zm-5.6,21.527q-53.669,0-86.108,39.81-40.4,49.542-40.4,145.086,0,97.9,41.874,150.689,32.143,40.105,84.929,40.105,56.323,0,93.037-43.939t36.714-138.6q0-102.622-40.4-153.048Q2609.609-408.524,2552.4-408.524Zm571.454-21.527v138.3h-10.911q-5.309-39.81-19.021-63.4T3054.851-392.6q-25.361-13.86-52.491-13.86-30.668,0-50.721,18.725t-20.052,42.612q0,18.283,12.68,33.323,18.283,22.117,86.992,58.978,56.029,30.079,76.523,46.15a112.55,112.55,0,0,1,31.553,37.893,99.83,99.83,0,0,1,11.059,45.708q0,45.413-35.239,78.293T3024.477-11.9a191.964,191.964,0,0,1-32.733-2.654q-9.142-1.475-37.894-10.764T2917.432-34.6q-7.372,0-11.648,4.423T2899.443-11.9h-10.911V-149.021h10.911q7.668,43.054,20.643,64.433t39.663,35.534Q2986.436-34.9,3018.284-34.9q36.862,0,58.241-19.463t21.379-46q0-14.744-8.109-29.784t-25.213-28.014q-11.5-8.847-62.812-37.6t-72.985-45.855q-21.675-17.1-32.88-37.746a93.637,93.637,0,0,1-11.206-45.413q0-43.054,33.028-74.165t84.043-31.111q31.849,0,67.53,15.629,16.514,7.372,23.3,7.372,7.667,0,12.533-4.571t7.815-18.431Zm409.56,0v138.3H3522.5q-5.31-39.81-19.021-63.4T3464.41-392.6q-25.36-13.86-52.49-13.86-30.668,0-50.721,18.725t-20.052,42.612q0,18.283,12.68,33.323,18.282,22.117,86.992,58.978,56.03,30.079,76.524,46.15a112.562,112.562,0,0,1,31.553,37.893,99.83,99.83,0,0,1,11.059,45.708q0,45.413-35.239,78.293T3434.036-11.9a191.962,191.962,0,0,1-32.732-2.654q-9.142-1.475-37.894-10.764T3326.992-34.6q-7.373,0-11.648,4.423T3309-11.9h-10.911V-149.021H3309q7.666,43.054,20.643,64.433t39.663,35.534Q3396-34.9,3427.844-34.9q36.86,0,58.241-19.463t21.38-46q0-14.744-8.11-29.784t-25.213-28.014q-11.5-8.847-62.812-37.6t-72.985-45.855q-21.674-17.1-32.88-37.746a93.634,93.634,0,0,1-11.206-45.413q0-43.054,33.027-74.165t84.043-31.111q31.848,0,67.53,15.629,16.514,7.372,23.3,7.372,7.667,0,12.532-4.571t7.815-18.431Zm256.511,221.757V-91.813q0,37.746,8.257,46.888,11.206,12.975,33.911,12.975h15.335v10.911H3676.1V-31.95h15.04q25.36,0,36.271-16.514,5.9-9.142,5.9-43.349V-350.136q0-37.746-7.962-46.887Q3713.844-410,3691.138-410H3676.1V-420.91h146.561q53.669,0,84.633,11.058a116.49,116.49,0,0,1,52.2,37.3q21.231,26.245,21.232,62.222,0,48.952-32.291,79.62t-91.268,30.668A257.477,257.477,0,0,1,3825.9-202.1Q3809.094-204.166,3789.926-208.294Zm0-16.809q15.629,2.949,27.72,4.423a174.5,174.5,0,0,0,20.642,1.474q30.668,0,52.933-23.739t22.264-61.485a110.576,110.576,0,0,0-10.616-48.214q-10.616-22.264-30.079-33.322t-44.234-11.058q-15.04,0-38.63,5.6Z" transform="translate(886.978 621.163)"/>
  </g>
</svg>
