<svg xmlns="http://www.w3.org/2000/svg" xmlns:xlink="http://www.w3.org/1999/xlink" width="150" height="129.75" viewBox="0 0 150 129.75">
  <defs>
    <clipPath id="clip-path">
      <path id="Caminho_9082" data-name="Caminho 9082" d="M128,143H247v88.125H128Zm0,0" fill="#c28332"/>
    </clipPath>
    <clipPath id="clip-path-2">
      <path id="Caminho_9084" data-name="Caminho 9084" d="M112.5,101.375H222V203H112.5Zm0,0"/>
    </clipPath>
    <clipPath id="clip-path-3">
      <path id="Caminho_9086" data-name="Caminho 9086" d="M161,101.375H262.5V203H161Zm0,0" fill="#bb8535"/>
    </clipPath>
  </defs>
  <g id="Grupo_8118" data-name="Grupo 8118" transform="translate(16864 9131.125)">
    <g id="Grupo_8087" data-name="Grupo 8087" transform="translate(-16976.5 -9232.5)" clip-path="url(#clip-path)">
      <path id="Caminho_9081" data-name="Caminho 9081" d="M220.465,206.859l8.344,14.422H146.324L185.383,153.5l-5.977-9.875-50.468,87.684H246.191l-14.238-24.454Zm0,0" fill="#be8132"/>
    </g>
    <g id="Grupo_8088" data-name="Grupo 8088" transform="translate(-16976.5 -9232.5)" clip-path="url(#clip-path-2)">
      <path id="Caminho_9083" data-name="Caminho 9083" d="M146.531,192.875H129.9l41.243-71.437,39.242,67.906h11.562l-30.039-52.028h-.027l-20.738-35.941L112.512,202.906h28.043Zm0,0" fill="#7a7a7a"/>
    </g>
    <g id="Grupo_8089" data-name="Grupo 8089" transform="translate(-16976.5 -9232.5)" clip-path="url(#clip-path-3)">
      <path id="Caminho_9085" data-name="Caminho 9085" d="M203.859,121.438,245.1,192.875H167.6l-5.792,10.031H262.488L203.859,101.375,189.93,125.516l5.8,10.031Zm0,0" fill="#be853a"/>
    </g>
  </g>
</svg>
